<?xml version="1.0" encoding="utf-8"?>
<!-- Generator: Adobe Illustrator 26.1.0, SVG Export Plug-In . SVG Version: 6.00 Build 0)  -->
<svg version="1.1" id="LOGO" xmlns="http://www.w3.org/2000/svg" xmlns:xlink="http://www.w3.org/1999/xlink" x="0px" y="0px"
	 viewBox="0 0 1092.72 299.31" style="enable-background:new 0 0 1092.72 299.31;" xml:space="preserve">
<style type="text/css">
	.st0{fill:#180F06;}
</style>
<path class="st0" d="M419.29,284.71c-74.42,0-134.97-60.55-134.97-134.97S344.87,14.77,419.29,14.77
	c74.42,0,134.97,60.55,134.97,134.97S493.71,284.71,419.29,284.71z M419.03,56.77c-51.31,0-93.06,41.75-93.06,93.06
	c0,51.31,41.75,93.06,93.06,93.06c51.31,0,93.06-41.75,93.06-93.06C512.09,98.52,470.35,56.77,419.03,56.77z M937.61,284.71
	c-74.42,0-134.97-60.55-134.97-134.97S863.18,14.77,937.61,14.77c74.42,0,134.97,60.55,134.97,134.97S1012.03,284.71,937.61,284.71z
	 M937.35,56.77c-51.31,0-93.06,41.75-93.06,93.06c0,51.31,41.75,93.06,93.06,93.06c51.31,0,93.06-41.75,93.06-93.06
	C1030.41,98.52,988.66,56.77,937.35,56.77z M125.13,284.71H66.38c-25.5,0-46.24-20.74-46.24-46.24V61.01
	c0-25.5,20.74-46.24,46.24-46.24h58.75c74.42,0,134.97,60.55,134.97,134.97S199.55,284.71,125.13,284.71z M66.06,56.77
	c-2.21,0-4,1.79-4,4v178.12c0,2.21,1.79,4,4,4h57.87c51.23,0,93.74-40.91,94.24-92.14c0.5-51.73-41.44-93.98-93.05-93.98H66.06z
	 M778.75,184.33L778.9,18.6c0-2.21-1.79-4-4-4h-34c-2.21,0-4,1.79-4,4l-0.15,165.92c0,32.49-26.68,58.87-59.29,58.37
	c-32.03-0.49-57.47-27.22-57.47-59.26v-29.98c0-2.21-1.79-4-4-4h-34c-2.21,0-4,1.79-4,4v29.57c0,55.39,44.4,101.16,99.79,101.48
	C733.4,285.03,778.75,239.88,778.75,184.33z"/>
</svg>
